<svg xmlns="http://www.w3.org/2000/svg" width="68" height="36.833" viewBox="0 0 68 36.833">
  <path id="iconmonstr-car-1" d="M61.594,19.943c-3.817-1.105-5.341-1.524-10.064-2.61,0,0-6.74-6.684-8.024-7.979C41.9,7.734,40.551,6,35.15,6H12.784c-1.448,0-2.085,1.55-.2,2.833a85.053,85.053,0,0,0-6.4,5.743C2.122,18.7,0,21.334,0,26.632c0,4.987,2.952,10.534,8.993,10.534h.028a8.45,8.45,0,0,0,15.957,0h18.04a8.45,8.45,0,0,0,15.957,0h1.941c5.65,0,7.083-5.032,7.083-8.967C68,22.416,64.818,20.878,61.594,19.943ZM17,37.733a3.4,3.4,0,1,1,3.4-3.4A3.4,3.4,0,0,1,17,37.733ZM27.132,20.167c-3.034,0-9.917-.3-14.787-2.125,1.638-2.125,2.828-3.462,3.6-4.352a5.922,5.922,0,0,1,4.423-2.023h6.766Zm2.833-8.5h5.2c2.5,0,4.046,1.4,5.729,3.131,1.281,1.32,4.907,5.369,4.907,5.369H29.968v-8.5ZM51,37.733a3.4,3.4,0,1,1,3.4-3.4A3.4,3.4,0,0,1,51,37.733Z" transform="translate(0 -6)" fill="#fff"/>
</svg>
