<svg id="_293948" data-name="293948" xmlns="http://www.w3.org/2000/svg" width="53.878" height="49.013" viewBox="0 0 53.878 49.013">
  <path id="Tracé_1" data-name="Tracé 1" d="M29.743-1162.858a28.38,28.38,0,0,1,11.448,2.973,31.746,31.746,0,0,1,10.2,8.205,1.805,1.805,0,0,1,.3.417c-.013.013-.578.105-1.256.207-10.149,1.493-18.1,3.584-23.03,6.055a14.411,14.411,0,0,0-5.055,3.858c-1.8,2.513-1.164,5.241,1.826,7.868,4.958,4.351,15.626,7.973,27.913,9.47.8.1,2.509.282,3.036.325a3.448,3.448,0,0,1,.426.055,38.078,38.078,0,0,1-1.417,4.781c-.818,2.614-1.5,4.765-1.505,4.773s-.489-.03-1.071-.084c-2.618-.261-5.616-.472-8.618-.611-4.41-.2-8.1-.274-17.308-.337-3.411-.025-7.315-.063-8.677-.084l-2.483-.038-.4-.371c-.62-.561-2.5-2.441-3.124-3.129q-7.191-7.842-8.833-16.031c-.135-.666-.257-1.472-.35-2.336a28.737,28.737,0,0,1,0-4.174,21.7,21.7,0,0,1,1.834-6.81c.089-.2.223-.481.3-.632a23,23,0,0,1,2.176-3.542,27.907,27.907,0,0,1,19.526-10.689A31.734,31.734,0,0,1,29.743-1162.858Z" transform="translate(-1.682 1162.882)" fill="#fff"/>
  <path id="Tracé_2" data-name="Tracé 2" d="M44.013-848.627c.013.042.139.654.278,1.354a145.6,145.6,0,0,1,2.184,20.622l.076,1.366-.763-.029c-.907-.034-2.513-.131-3.647-.215-10.339-.793-18.927-3.032-23.789-6.2-2.083-1.358-3.369-2.821-3.812-4.339a4.48,4.48,0,0,1-.1-1.691c.325-2.036,2.315-3.993,5.743-5.646,4.368-2.1,10.693-3.677,19.134-4.76.911-.118,3.2-.375,3.985-.447.278-.025.548-.055.6-.068S44-848.674,44.013-848.627Z" transform="translate(6.79 861.934)" fill="#fff"/>
</svg>
